# xmcd CD database file
#
# Track frame offsets:
#	150
#	29149
#	53254
#	83948
#	108369
#	134439
#	155647
#	184768
#	210376
#	230649
#
# Disc length: 3373 seconds
#
# Revision: 2
# Processed by: cddbd v1.5.1PL0 Copyright (c) Steve Scherf et al.
# Submitted via: CDex 1.51
#
DISCID=840d2b0a
DTITLE=Jim Mullen - Rule Of Thumb
DYEAR=2001
DGENRE=Jazz
TTITLE0=Rule Of Thumb
TTITLE1=Shelflife
TTITLE2=Speed Of Sound
TTITLE3=Nova Scotia
TTITLE4=Spare Change
TTITLE5=Best Before
TTITLE6=Say No More
TTITLE7=Skid
TTITLE8=Power Of Three
TTITLE9=Foureyes
EXTD=YEAR: 2001
EXTT0=
EXTT1=
EXTT2=
EXTT3=
EXTT4=
EXTT5=
EXTT6=
EXTT7=
EXTT8=
EXTT9=
PLAYORDER=
